<?xml version="1.0" encoding="utf-8" ?>
<svg xmlns="http://www.w3.org/2000/svg" xmlns:xlink="http://www.w3.org/1999/xlink" width="180" height="180">
	<path fill="#323232" transform="scale(0.351562 0.351562)" d="M267.547 55.2333C274.833 55.0198 282.372 54.9346 289.634 55.5936C407.806 66.3181 464.119 207.659 388.622 297.271C382.958 303.994 376.291 309.452 370.372 315.872C347.753 340.41 349.066 366.08 351.988 395.726L355.546 430.233C356.136 435.663 357.302 441.39 357.455 446.829C357.698 455.434 345.38 452.74 338.774 452.741L237.746 452.734L207.219 452.735C202.332 452.739 197.279 453.073 192.415 452.734C191.374 451.846 190.458 450.868 189.525 449.87C189.297 442.512 189.52 435.086 189.521 427.718L189.525 383.161L168.097 383.179C141.081 383.19 128.524 379.415 128.535 349.611L128.538 335.261C125.813 330.997 115.895 323.919 115.152 319.605C114.643 316.654 120.239 312.215 121.801 309.773C120.017 307.27 116.834 305.182 115.637 302.359C113.689 297.765 123.588 291.955 122.749 285.8C121.834 279.079 92.3876 290.127 89.1347 265.309C87.5428 253.163 97.5354 245.197 104.741 236.889C112.094 228.411 125.74 211.405 129.264 201.658C130.476 198.305 130.175 193.592 130.443 190.04C135.331 125.035 185.113 71.065 248.528 57.7953C254.793 56.4845 261.206 56.0376 267.547 55.2333Z"/>
	<path fill="#F5AF54" transform="scale(0.351562 0.351562)" d="M128.538 300.33L128.809 300.082C134.907 294.405 136.324 282.905 130.325 276.691C121.755 267.812 108.703 275.634 102.228 268.555C94.979 260.631 106.455 251.645 111.359 246.16C121.117 235.247 129.609 223.543 137.089 210.964C141.903 202.869 140.867 204.046 141.268 194.769C146.311 78.0607 294.082 20.0454 376.987 111.311C401.421 138.834 413.706 174.498 411.549 211.415C409.722 242.672 394.444 279.397 370.676 300.33C340.61 326.011 337.313 356.67 340.667 392.692L344.176 427.453C344.679 432.211 345.391 436.953 345.799 441.72L302.368 441.72L288.999 441.72L200.253 441.72L200.253 383.161C204.894 382.993 210.065 383.846 214.595 382.801C217.699 382.086 238.105 368.941 240.876 366.304C244.16 363.181 243.472 346.512 242.587 343.325C241.545 339.571 236.145 338.078 233.415 340.958C230.06 344.498 231.711 354.883 231.734 359.381L219.024 367.48C209.392 373.588 210.148 372.098 199.174 372.073L162.378 372.083C143.588 372.126 139.694 368.175 139.734 350.745L139.78 339.322C139.857 327.624 136.836 328.385 130.002 319.769C140.171 310.217 139.868 314.804 128.538 300.33Z"/>
	<path fill="white" transform="scale(0.351562 0.351562)" d="M320.73 361.032C331.388 360.157 333.813 374.684 323.4 377.824C311.199 378.435 309.729 363.872 320.73 361.032Z"/>
	<path fill="white" transform="scale(0.351562 0.351562)" d="M320.73 422.775C331.618 422.035 334.215 436.517 323.4 439.707C312.002 440.963 309.761 426.117 320.73 422.775Z"/>
	<path fill="white" transform="scale(0.351562 0.351562)" d="M320.73 391.043C331.628 389.775 333.619 405.771 323.4 407.915C312.243 408.634 308.941 394.423 320.73 391.043Z"/>
	<path fill="white" transform="scale(0.351562 0.351562)" d="M288.999 441.72L288.994 370.629C288.991 366.985 288 361.753 290.952 358.92C293.615 356.365 298.417 357.302 300.614 360.006C303.298 363.31 302.391 370.332 302.384 374.285L302.368 441.72L288.999 441.72Z"/>
	<path fill="#323232" transform="scale(0.351562 0.351562)" d="M207.004 243.166C206.981 239.806 206.08 231.592 208.411 229.233C210.649 226.969 230.309 228.041 233.792 228.04L316.493 228.035C320.787 228.036 343.898 226.815 346.457 229.433C349.102 232.138 348.27 238.351 348.324 241.912C370.362 246.357 373.17 274.789 350.02 281.96L350.02 291.558C350.178 307.294 349.819 306.049 334.387 306.027C330.363 306.022 326.262 306.178 322.244 305.989C320.409 306.105 318.526 305.735 316.728 305.989C338.975 331.528 297.393 358.611 283.035 327.737L264.099 327.764C246.354 327.793 250.035 325.74 250.074 306.536C239.596 303.832 231.101 291.927 235.194 281.121C231.532 277.26 228.133 273.639 225.068 269.272C214.146 293.665 179.514 281.447 186.201 257.024C187.792 251.215 191.553 247.295 196.694 244.407C200.196 243.157 203.305 243.038 207.004 243.166Z"/>
	<path fill="#F5AF54" transform="scale(0.351562 0.351562)" d="M344.189 253.039C355.743 252.437 358.016 265.922 347.644 271.277C335.265 270.852 333.317 255.597 344.189 253.039Z"/>
	<path fill="#F5AF54" transform="scale(0.351562 0.351562)" d="M204.502 253.824C216.237 253.351 218.27 268.189 207.004 271.277C194.328 271.68 192.971 256.178 204.502 253.824Z"/>
	<path fill="#F5AF54" transform="scale(0.351562 0.351562)" d="M254.365 277.813C265.431 277.531 266.835 293.164 255.393 296.023C242.704 296.255 241.785 279.473 254.365 277.813Z"/>
	<path fill="white" transform="scale(0.351562 0.351562)" d="M301.248 311.774C313.506 310.971 315.552 327.355 304.179 330.221C291.557 331.235 289.833 314.95 301.248 311.774Z"/>
	<path fill="#439CFE" transform="scale(0.351562 0.351562)" d="M307.955 267.75L326.743 267.75C328.954 273.775 332.712 278.185 338.418 281.121C338.284 285.75 338.409 290.412 338.418 295.044C331.573 295.051 321.242 292.398 319.245 300.33C319.741 302.585 320.81 304.205 322.244 305.989C320.409 306.105 318.526 305.735 316.728 305.989C313.868 304.194 311.257 302.426 307.955 301.561L307.955 267.75Z"/>
	<path fill="#439CFE" transform="scale(0.351562 0.351562)" d="M217.849 239.177L238.169 239.159C241.453 239.155 244.949 238.887 248.207 239.177L248.207 267.75C241.45 270.309 237.434 274.396 235.194 281.121C231.532 277.26 228.133 273.639 225.068 269.272C227.263 261.291 225.399 251.78 217.849 247.362L217.849 239.177Z"/>
	<path fill="#439CFE" transform="scale(0.351562 0.351562)" d="M259.694 239.177L337.377 239.177L337.377 243.166C332.063 246.661 328.899 250.349 326.743 256.312L297.193 256.312L297.193 289.844L297.193 301.561C289.713 303.969 285.292 309.056 283.035 316.647C275.678 316.523 268.305 316.635 260.946 316.647C260.958 313.098 260.797 309.535 260.946 305.989C280.177 296.119 277.711 271.329 259.694 267.75L259.694 239.177Z"/>
	<path fill="#439CFE" transform="scale(0.351562 0.351562)" d="M267.547 98.3285C275.711 69.1855 320.966 85.0704 304.179 115.437C312.481 120.276 319.451 127.34 326.743 133.492C332.379 119.5 347.781 116.833 359.487 125C365.502 120.745 371.473 116.2 376.987 111.311C401.421 138.834 413.706 174.498 411.549 211.415C409.722 242.672 394.444 279.397 370.676 300.33C368.544 298.826 353.202 292.624 350.02 291.558L350.02 281.96C373.17 274.789 370.362 246.357 348.324 241.912C348.27 238.351 349.102 232.138 346.457 229.433C343.898 226.815 320.787 228.036 316.493 228.035L233.792 228.04C230.309 228.041 210.649 226.969 208.411 229.233C206.08 231.592 206.981 239.806 207.004 243.166C203.305 243.038 200.196 243.157 196.694 244.407C193.384 237.029 190.917 229.901 189.525 221.887C166.816 227.777 153.13 197.618 172.326 185.14C177.604 181.71 183.477 181.163 189.525 182.416C189.298 175.768 193.019 164.933 195.74 158.782C169.838 142.792 196.161 104.572 220.362 127.451C223.753 123.816 228.015 120.608 232.244 117.998C232.456 100.189 228.025 98.2249 247.68 98.3043L267.547 98.3285Z"/>
	<path fill="#323232" transform="scale(0.351562 0.351562)" d="M254.365 197.047L293.938 197.047L293.938 208.086L289.523 208.086L265.022 208.086C261.581 208.087 257.85 208.41 254.439 208.135C247.757 207.596 247.758 197.544 254.365 197.047Z"/>
	<path fill="#323232" transform="scale(0.351562 0.351562)" d="M189.525 221.887C166.816 227.777 153.13 197.618 172.326 185.14C177.604 181.71 183.477 181.163 189.525 182.416C196.373 185.638 201.262 189.614 203.493 197.047L237.746 197.047L237.746 208.086L203.493 208.086C200.419 214.893 196.627 219.144 189.525 221.887Z"/>
	<path fill="white" transform="scale(0.351562 0.351562)" d="M183.194 192.587C195.45 192.84 196.658 208.568 184.991 211.525C172.092 211.662 170.438 194.503 183.194 192.587Z"/>
	<path fill="#323232" transform="scale(0.351562 0.351562)" d="M372.091 182.416C384.088 177.447 400.326 193.293 394.295 208.901C387.575 226.291 364.28 226.343 356.567 208.086L343.188 208.086L306.218 208.086L306.218 197.047L356.567 197.047C357.374 189.239 364.325 182.897 372.091 182.416Z"/>
	<path fill="#F5AF54" transform="scale(0.351562 0.351562)" d="M374.252 192.587C386.218 190.943 388.617 207.46 376.987 210.532C364.99 210.909 362.603 195.6 374.252 192.587Z"/>
	<path fill="#323232" transform="scale(0.351562 0.351562)" d="M326.743 133.492C332.379 119.5 347.781 116.833 359.487 125C371.796 138.038 367.229 158.137 348.324 161.377C348.356 165.454 349.391 174.911 346.475 177.812C344.635 179.642 291.731 178.925 285.565 178.728C277.63 178.475 280.051 166.601 280.051 160.536L280.064 136.692L290.973 136.692L290.973 167.838L337.377 167.838L337.377 159.851C327.972 154.403 322.173 144.072 326.743 133.492Z"/>
	<path fill="white" transform="scale(0.351562 0.351562)" d="M344.189 131.776C356.819 130.122 360.26 145.993 347.644 150.456C334.929 151.579 331.688 134.483 344.189 131.776Z"/>
	<path fill="#323232" transform="scale(0.351562 0.351562)" d="M267.547 98.3285C275.711 69.1855 320.966 85.0704 304.179 115.437C292.355 128.114 274.414 126.052 267.547 109.224L242.895 109.224C242.913 113.732 243.247 118.449 242.895 122.938C246.415 122.918 257.867 122.039 259.896 124.455C261.563 126.44 261.632 172.191 260.4 176.729C259.901 178.565 257.867 178.713 256.262 178.788C248.01 179.17 212.078 180.75 207.004 176.426L207.004 161.377C203.326 160.276 199.251 160.309 195.74 158.782C169.838 142.792 196.161 104.572 220.362 127.451C223.753 123.816 228.015 120.608 232.244 117.998C232.456 100.189 228.025 98.2249 247.68 98.3043L267.547 98.3285Z"/>
	<path fill="white" transform="scale(0.351562 0.351562)" d="M203.493 131.776C215.363 130.196 217.982 145.53 207.004 149.532C194.857 151.377 191.231 135.186 203.493 131.776Z"/>
	<path fill="white" transform="scale(0.351562 0.351562)" d="M286.569 93.7914C298.371 92.9263 300.393 109.32 288.999 112.778C275.171 112.97 273.702 96.4775 286.569 93.7914Z"/>
	<path fill="#439CFE" transform="scale(0.351562 0.351562)" d="M232.244 117.998L232.244 122.938C226.914 121.78 222.817 126.422 226.189 131.126C228.531 134.393 234.455 133.531 237.932 133.519L250.074 133.492C250.08 144.905 250.455 156.438 250.074 167.838L217.849 167.838C217.82 164.034 217.515 160.01 217.849 156.232C225.706 146.568 227.591 137.976 220.362 127.451C223.753 123.816 228.015 120.608 232.244 117.998Z"/>
</svg>
