<?xml version="1.0" encoding="utf-8" ?>
<svg xmlns="http://www.w3.org/2000/svg" xmlns:xlink="http://www.w3.org/1999/xlink" width="150" height="150">
	<path fill="#439CFE" transform="matrix(-0.288391 -0.00457789 -0.00457789 0.288391 150 2.34387)" d="M430.903 237.305C454.639 236.107 459.026 267.054 439.141 273.453C429.269 276.63 418.155 270.782 415.053 260.9L400.085 260.9L380.579 260.926C377.136 260.942 373.151 261.338 369.768 260.736C366.188 260.1 364.042 255.49 366.865 252.704C370.379 249.237 380.741 250.748 385.256 250.746L415.053 250.742L415.49 249.591C418.054 242.841 423.882 238.661 430.903 237.305ZM432.192 248.309C421.145 249.413 423.291 263.012 434.318 264.485C446.759 257.928 440.074 246.425 432.192 248.309Z"/>
	<path fill="#439CFE" transform="matrix(-0.288391 -0.00457789 -0.00457789 0.288391 150 2.34387)" d="M77.408 238.184C85.7657 235.586 93.6877 243.927 96.6156 250.742L128.918 250.754C133.786 250.763 147.197 248.258 147.764 255.382C148.341 262.633 138.661 260.928 134.241 260.924L116.625 260.9C109.959 260.897 103.28 260.795 96.6156 260.9C91.8952 274.206 77.0444 280.142 66.0571 270.284C53.42 258.945 60.9937 238.955 77.408 238.184ZM77.408 248.309C66.4094 251.326 68.5286 265.393 79.8168 264.485C89.888 261.858 88.4161 247.251 77.408 248.309Z"/>
	<path fill="#439CFE" transform="matrix(-0.288391 -0.00457789 -0.00457789 0.288391 150 2.34387)" d="M254.262 59.5932C275.546 56.6806 283.86 89.0484 261.546 96.2513L261.562 124.36C261.563 129.952 263.559 141.59 258.167 145.121C247.796 147.894 250.737 131.253 250.736 125.53L250.75 96.2513C231.562 92.3225 232.792 61.773 254.262 59.5932ZM254.262 70.024C243.372 72.8733 246.486 87.789 258.167 86.3215C268.384 83.3409 265.245 68.6824 254.262 70.024Z"/>
	<path fill="#439CFE" transform="matrix(-0.288391 -0.00457789 -0.00457789 0.288391 150 2.34387)" d="M255.369 361.772C264.475 360.487 261.556 374.635 261.553 380.335L261.546 414.869C281.874 420.72 278.961 449.403 257.561 452.142C236.666 454.793 227.926 420.75 251.257 414.869L251.243 385.282C251.241 377.745 248.38 365.197 255.369 361.772ZM255.369 424.548C243.901 426.509 246.264 441.934 257.561 441.464C268.073 439.568 266.392 423.645 255.369 424.548Z"/>
	<path fill="#439CFE" transform="matrix(-0.288391 -0.00457789 -0.00457789 0.288391 150 2.34387)" d="M167.314 77.3047C180.535 76.1309 187.713 83.6415 189.873 96.2513C203.187 96.5536 225.197 94.9533 225.174 115.248L225.101 137.747C225.076 144.05 218.157 147.181 215.444 141.156C210.344 129.832 222.738 107.21 203.526 106.606L185.832 106.606C182.024 110.658 181.311 111.551 175.952 113.728L175.958 135.733C175.965 139.603 176.164 143.513 175.952 147.376C174.613 149.076 172.906 150.561 170.636 150.641C163.751 150.882 165.449 139.095 165.448 134.935L165.457 113.728C145.498 106.946 148.212 81.4558 167.314 77.3047ZM168.624 87.7879C158.204 91.1519 161.093 105.546 172.439 103.742C182.339 100.639 180.85 86.6967 168.624 87.7879Z"/>
	<path fill="#439CFE" transform="matrix(-0.288391 -0.00457789 -0.00457789 0.288391 150 2.34387)" d="M340.741 77.3047C350.799 71.3103 375.218 98.5413 347.499 113.728L347.516 134.185C347.539 137.945 348.01 142.287 347.36 145.975C346.649 150.004 341.522 151.185 338.754 148.471C335.516 145.295 336.759 137.048 336.759 132.979L336.744 113.728C332.131 112.361 329.338 109.914 326.003 106.606C321.825 106.237 317.385 106.567 313.188 106.606C286.603 105.325 303.342 134.736 297.147 142.223C292.153 148.258 287.543 142.601 287.49 135.499L287.503 122.905C287.578 103.804 293.464 95.9056 313.288 96.1854L322.981 96.2513C323.067 86.095 329.929 76.8303 340.741 77.3047ZM340.741 87.7879C329.594 88.876 331.13 104.019 343.118 103.742C353.491 100.972 350.91 85.4187 340.741 87.7879Z"/>
	<path fill="#439CFE" transform="matrix(-0.288391 -0.00457789 -0.00457789 0.288391 150 2.34387)" d="M168.624 361.772C177.998 361.292 175.973 371.391 175.964 377.699C175.954 384.3 175.88 390.904 175.952 397.504C180.413 398.973 183.185 401.468 185.832 405.259C190.796 405.251 203.406 405.87 207.397 404.975C224.225 401.203 205.317 364.683 219.782 361.772C222.004 362.282 223.861 362.895 224.543 365.365C225.702 369.559 226.148 399.651 222.361 405.259C215.913 418.099 202 415.775 189.873 415.963C189.277 418.123 188.82 420.394 188.1 422.51C184.834 432.103 172.554 436.553 163.511 433.01C146.727 426.434 147.51 405.111 165.457 397.504L165.446 375.82C165.424 370.657 163.794 365.18 168.624 361.772ZM168.624 407.811C157.972 409.947 160.759 425.108 172.439 424.046C182.515 419.854 180.017 405.21 168.624 407.811Z"/>
	<path fill="#439CFE" transform="matrix(-0.288391 -0.00457789 -0.00457789 0.288391 150 2.34387)" d="M336.099 364.266C346.759 354.493 346.372 370.768 346.371 376.727L346.351 397.504C348.923 398.45 351.265 399.675 353.451 401.328C361.567 409.1 363.242 421.553 354.545 429.771C342.599 441.06 322.423 432.233 322.981 415.963C310.017 415.936 289.691 418.319 287.726 399.523C287.408 396.48 287.099 366.489 287.706 364.908C288.378 363.16 290.006 362.43 291.62 361.772C306.884 360.704 288.356 401.236 305.042 405.039C307.791 405.665 322.185 405.378 326.003 405.259C328.759 401.366 331.816 399.491 336.099 397.504L336.092 375.383C336.081 371.704 335.774 367.925 336.099 364.266ZM339.315 407.811C328.556 411.547 332.736 426.043 343.118 424.046C353.311 420.979 352.542 406.56 339.315 407.811Z"/>
	<path fill="#439CFE" transform="matrix(-0.288391 -0.00457789 -0.00457789 0.288391 150 2.34387)" d="M368.556 286.226C371.143 286.071 373.793 286.22 376.389 286.217L389.404 286.129C398.354 286.145 407.273 291.826 409.634 300.774C411.218 306.777 410.484 315.398 410.485 321.73L410.476 351.628C427.522 357.982 428.111 382.06 410.542 387.847C399.187 391.587 389.84 385.03 386.381 374.23C369.604 374.072 362.081 373.822 362.255 354.381C362.507 329.663 354.214 341.534 348.53 334.807C342.628 327.822 356.539 321.58 366.625 331.748C376.916 342.122 370.18 358.541 373.6 362.604C374.808 364.04 385.142 363.427 387.415 363.461C387.436 363.372 387.456 363.282 387.479 363.192L387.595 362.746C389.081 356.85 394.636 353.468 400.085 351.628L400.093 320.89C400.106 314.697 401.85 306.032 397.906 300.7C392.478 293.364 376.164 298.261 367.321 296.607C360.746 295.377 360.789 286.553 368.556 286.226ZM403.779 361.772C392.386 363.362 393.87 377.962 406.137 378.983C416.997 374.014 413.187 359.463 403.779 361.772Z"/>
	<path fill="#439CFE" transform="matrix(-0.288391 -0.00457789 -0.00457789 0.288391 150 2.34387)" d="M119.479 286.226C124.163 285.927 129.059 286.227 133.765 286.239C138.211 286.25 147.926 284.44 147.759 291.564C147.468 304.021 115.985 288.648 113.074 303.874C112.188 308.513 112.732 315.049 112.731 319.884L112.742 351.628C119.697 355.004 121.986 357.356 125.533 364.266C139.912 365.152 139.15 362.955 139.298 350.278C139.396 341.879 141.003 334.179 148.574 329.178C153.506 325.92 161.04 323.069 164.728 329.318C164.864 332.233 164.721 334.385 162.065 336.16C159.583 336.445 157.235 336.428 155.009 337.712C141.557 346.449 163.313 376.587 126.112 374.23C123.917 379.961 121.201 384.818 115.39 387.503C93.6592 397.544 73.1012 364.421 102.234 351.628L102.224 319.839C102.198 305.167 100.888 289.7 119.479 286.226ZM105.965 361.772C95.0697 364.571 96.5896 379.465 108.457 378.983C119.734 375.816 117.871 361.293 105.965 361.772Z"/>
	<path fill="#439CFE" transform="matrix(-0.288391 -0.00457789 -0.00457789 0.288391 150 2.34387)" d="M104.636 123.578C115.201 122.937 122.69 128.21 125.533 138.518C151.251 138.319 148.594 147.683 149.73 168.561C150.42 181.255 166.742 171.69 172.117 176.899C173.945 178.67 174.372 182.218 172.432 184.062C169.566 186.788 160.752 185.942 156.818 185.833C131.288 185.123 143.061 156.472 137.136 150.599C134.401 147.888 128.287 148.95 124.654 148.944C122.631 154.536 118.438 158.334 112.742 160.133C112.633 166.122 112.741 172.134 112.742 178.125L112.726 196.969C112.718 200.344 112.436 203.99 112.84 207.338C114.433 220.549 139.961 210.78 145.914 215.892C148.257 217.903 148.26 221.188 146.1 223.319C143.442 225.942 132.566 224.742 128.968 224.74C102.731 224.724 102.22 216.434 102.224 192.759L102.234 161.249C100.13 160.019 97.9355 158.79 95.986 157.327C82.1217 146.918 87.9521 125.864 104.636 123.578ZM105.965 133.788C95.2585 136.615 96.6969 151.096 108.457 150.769C118.65 148.413 117.077 133.088 105.965 133.788Z"/>
	<path fill="#439CFE" transform="matrix(-0.288391 -0.00457789 -0.00457789 0.288391 150 2.34387)" d="M402.481 123.578C419.668 119.714 436.245 147.123 410.476 160.133L410.486 190.619C410.487 221.657 408.498 226.027 376.755 226.131C371.738 226.147 360.964 228.305 361.109 220.389C361.322 208.71 395.024 223.977 399.47 209.131C400.764 204.808 400.099 193.156 400.085 188.062L400.085 160.133C393.956 157.546 390.574 154.819 387.415 148.944L384.386 148.806C362.983 147.992 380.698 167.612 366.301 181.659C360.21 187.601 338.553 191.551 339.453 181.765C340.223 173.392 352.778 179.649 358.402 174.713C368.596 165.764 351.581 136.225 386.381 138.518C388.577 130.307 393.59 124.527 402.481 123.578ZM403.779 133.788C392.591 137.059 394.907 149.455 406.137 150.769C416.575 145.937 414.629 133.334 403.779 133.788Z"/>
	<path fill="#439CFE" transform="matrix(-0.288391 -0.00457789 -0.00457789 0.288391 150 2.34387)" d="M224.771 161.249C233.638 159.128 249.497 163.14 255.369 169.53C263.837 165.366 267.661 162.402 277.75 161.421C300.392 159.217 323.896 175.233 326.003 198.827C347.543 204.296 353.319 227.293 346.351 246.656C357.131 267.693 354.313 284.135 335.101 299.123C339.435 313.822 330.882 332.247 315.22 335.691C302.576 338.472 310.06 336.745 300.203 342.646C294.351 346.15 289.099 347.379 282.945 349.735C269.529 350.56 262.93 348.777 251.257 342.27C227.476 360.643 188.89 346.308 185.832 312.886C154.925 303.699 146.857 270.89 163.888 245.035C151.88 223.212 162.988 195.437 186.702 188.062C192.869 172.442 207.541 161.089 224.771 161.249ZM224.771 171.338C214.803 172.867 205.418 177.312 199.605 185.86C211.66 187.526 221.238 190.295 229.155 200.697C244.392 220.718 231.02 230.312 226.283 222.123C224.96 219.836 225.148 216.904 224.474 214.399C215.763 182.047 157.712 196.27 171.212 238.184C176.71 235.33 186.436 228.779 192.875 230.818C195.734 231.723 197.663 234.705 196.665 237.663C195.241 241.886 189.682 241.464 186.159 242.386C168.521 246.999 161.278 268.296 167.707 284.234C171.749 294.256 178.69 298.35 187.734 303.26C191.134 292.511 199.198 285.757 210.034 283.587C214.981 285.085 217.64 290.95 212.035 293.927C210.375 294.808 208.452 294.947 206.728 295.641C196.256 299.858 193.908 314.005 198.461 323.251C205.608 337.762 228.446 344.035 242.4 336.16C240.6 334.425 238.353 333.283 236.471 331.653C220.208 317.567 230.405 286.146 253.958 285.316C260.77 285.076 262.834 290.92 258.958 294.606C256.695 296.759 252.418 296.072 249.55 296.883C238.441 300.026 235.876 315.138 243.073 323.188C246.349 326.854 248.509 326.338 251.547 328.395C255.668 331.186 256.038 334.364 262.35 336.16C272.399 341.452 286.06 340.248 295.052 333.253C290.147 329.519 284.217 324.027 283.422 317.496C283.051 314.449 284.815 311.244 288.102 311.031C293.086 310.708 293.264 314.781 294.872 318.355C301.818 333.798 328.709 325.403 325.503 303.26C319.396 304.388 305.441 306.915 309.474 295.915L309.691 295.705C312.922 292.643 319.199 294.02 323.719 292.716C349.63 285.243 346.349 244.07 321.305 241.664C317.746 246.685 313.41 248.764 310.299 241.664C313.382 224.197 327.892 231.18 338.2 238.184C343.346 216.774 321.935 199.785 305.316 210.504C302.422 212.371 297.61 218.733 294.282 218.086C284.585 216.198 292.848 206.273 297.37 203.027C290.591 189.539 274.648 190.706 270.827 204.133C269.381 209.215 271.98 212.645 265.267 214.483C258.45 212.589 259.255 206.539 260.919 200.782C267.136 179.267 299.484 176.162 306.797 198.827C309.938 197.401 312.158 197.153 315.575 197.281C309.674 176.211 285.718 164.894 266.097 175.854C263.471 177.321 259.516 181.053 256.523 181.122C251.226 181.245 242.809 169.194 224.771 171.338Z"/>
	<path fill="#439CFE" transform="matrix(-0.288391 -0.00457789 -0.00457789 0.288391 150 2.34387)" d="M220.618 255.237C224.064 254.997 230.483 254.238 233.443 256.135C237.862 258.966 234.519 265.166 229.563 265.749C226.037 265.786 219.528 266.684 216.648 264.266C212.545 260.822 215.405 255.404 220.618 255.237Z"/>
	<path fill="#439CFE" transform="matrix(-0.288391 -0.00457789 -0.00457789 0.288391 150 2.34387)" d="M250.75 255.237C255.331 255.191 270.134 253.32 266.705 262.487C266.067 264.191 264.764 264.997 263.196 265.749C258.562 266.233 242.754 267.44 247.017 258.243C247.862 256.421 248.914 255.859 250.75 255.237Z"/>
	<path fill="#439CFE" transform="matrix(-0.288391 -0.00457789 -0.00457789 0.288391 150 2.34387)" d="M280.288 255.237C283.32 255.078 291.95 254.771 294.477 255.791C300.122 258.07 298.218 264.15 293.371 265.749C288.959 265.972 272.918 267.771 276.272 258.715C276.955 256.87 278.617 256.017 280.288 255.237Z"/>
</svg>
