<?xml version="1.0" encoding="utf-8" ?>
<svg xmlns="http://www.w3.org/2000/svg" xmlns:xlink="http://www.w3.org/1999/xlink" width="150" height="150">
	<path fill="#439CFE" transform="matrix(0.292969 0 0 -0.292969 0 150)" d="M401.805 218.493L401.853 218.509L401.915 218.781L402.101 218.592C405.241 227.357 408.645 236.462 410.976 245.475C406.954 247.05 402.754 248.067 398.76 249.746C398.321 249.23 390.375 224.987 389.544 222.571C393.651 221.285 397.776 220.01 401.805 218.493Z"/>
	<path fill="#439CFE" transform="matrix(0.292969 0 0 -0.292969 0 150)" d="M207.382 200.08C217.157 198.944 214.117 214.94 214.106 220.336C242.351 220.328 241.417 226.108 241.429 252.628L241.426 295.243C241.417 318.787 234.999 315.701 214.106 316.048C214.121 322.71 217.424 341.883 207.386 341.97C200.425 342.03 201.176 333.409 201.182 328.753L201.218 316.048L183.731 316.048C183.756 323.04 185.784 336.431 180.318 341.255C167.457 347.439 170.459 323.849 170.471 316.048C156.411 315.837 141.249 320.224 141.175 300.007L141.158 254.125C141.161 227.238 138.019 220.253 170.471 220.336C170.453 216.038 169.393 205.042 172.345 201.961C174.683 199.521 179.179 199.611 181.511 202.002C184.836 205.41 183.758 215.675 183.731 220.336L201.218 220.336C201.273 212.577 198.218 201.995 207.382 200.08ZM155.445 233.836L154.686 233.986C153.796 235.36 154.243 246.257 154.253 248.77C157.315 248.803 165.668 247.783 167.625 249.904C169.567 252.01 169.662 259.288 167.211 261.366C165.049 263.201 157.254 262.215 154.253 262.314L154.253 277.304C157.349 277.223 165.18 276.264 167.389 278.39C169.481 280.404 169.547 287.502 167.465 289.604C165.23 291.859 157.447 291.035 154.253 291.019L154.253 302.848C159.618 303.031 165.004 302.852 170.372 302.847L208.139 302.837C214.425 302.837 220.782 302.642 227.062 302.848L227.778 302.779C228.525 301.175 228.161 293.2 228.078 291.019C224.633 291.033 217.596 291.898 215.034 289.522C212.91 287.551 212.453 280.609 214.599 278.435C216.917 276.087 224.837 277.296 228.078 277.304L228.078 262.314C224.835 262.302 216.906 263.275 214.701 261.047C212.755 259.08 212.558 251.793 214.834 249.785C216.976 247.894 225.023 248.817 228.078 248.77C228.082 243.797 228.169 238.807 228.078 233.836L155.445 233.836Z"/>
	<path fill="#439CFE" transform="matrix(0.292969 0 0 -0.292969 0 150)" d="M188.504 248.77C190.738 248.443 194.655 247.58 196.613 248.98C197.981 249.957 202.525 262.751 193.744 262.314C191.416 262.838 187.833 263.615 185.896 261.828C184.157 260.224 181.589 248.976 188.504 248.77Z"/>
	<path fill="#439CFE" transform="matrix(0.292969 0 0 -0.292969 0 150)" d="M207.382 72.5453L241.824 72.5451C246.807 72.5446 271.111 69.8099 265.127 81.6097C261.369 89.0199 251.24 84.768 244.463 86.8868C232.657 90.578 225.776 104.109 229.663 115.825C232.23 123.564 237.116 125.975 243.894 129.391C251.272 133.109 247.886 140.191 241.423 141.941C220.445 136.659 208.63 112.346 219.587 92.8071C220.974 90.3343 222.705 88.0363 224.267 85.6699C214.795 86.1387 205.063 84.7786 195.99 88.3145C176.975 95.7257 166.887 121.066 180.885 137.77C183.772 141.215 193.807 150.408 182.432 153.303C172.038 155.949 163.701 134.176 161.965 126.837L150.739 126.818C139.505 126.847 127.428 130.224 127.438 143.841C127.444 152.235 138.137 154.227 137.78 160.748C137.574 164.51 134 167.496 130.278 167.139C125.859 166.716 121.747 161.16 119.157 157.96C90.6184 167.3 84.4948 206.455 110.033 220.073C113.782 222.073 119.54 222.886 119.998 228.026C121.232 241.875 101.819 231.411 96.7568 226.936C78.5061 242.271 77.9253 268.462 96.7568 283.394C100.145 279.973 109.992 273.514 115.319 274.876C118.793 275.764 120.72 279.384 119.641 282.779C118.396 286.696 114.357 287.912 111.008 289.542C84.4142 302.489 87.9572 343.056 119.157 353.368C122.806 343.481 138.353 339.604 138.113 350.24C138.001 355.207 134.301 355.136 131.439 357.92C122.775 366.351 128.606 380.74 139.939 383.1C144.27 384.002 148.954 383.263 153.358 383.254L184.747 383.243C184.781 373.879 180.817 358.83 193.744 359.258C208.244 364.062 181.431 407.86 226.252 421.099C224.747 418.559 222.81 416.281 221.356 413.701C212.448 397.903 218.215 377.606 232.719 367.385C239.193 362.822 250.154 362.194 247.798 372.108C246.332 378.277 233.605 378.211 230.596 392.929C228.062 405.326 237.272 418.151 249.476 420.529C255.422 421.687 262.177 421.09 268.239 421.1C285.792 421.128 290.611 422.939 305.382 412.88C308.503 416.224 311.905 419.294 315.003 422.676C302.814 433.539 291.252 434.238 276.161 434.249L238.552 434.247C210.371 434.222 194.927 424.356 186.242 396.422C172.19 396.11 158.079 396.515 144.021 396.443C126.627 396.355 113.763 383.057 114.004 365.779C84.6328 354.539 69.3258 321.215 87.9507 294.101C85.273 291.183 82.4089 288.407 79.9183 285.324C63.184 264.615 67.4018 233.216 87.9507 216.775C71.3204 189.463 84.3913 156.221 114.004 145.832C114.1 137.065 117.068 129.142 123.362 122.935C134.967 111.492 147.077 113.391 161.965 113.422C163.589 89.9899 185.008 74.3647 207.382 72.5453Z"/>
	<path fill="#439CFE" transform="matrix(0.292969 0 0 -0.292969 0 150)" d="M295.637 263.91C300.607 263.464 305.997 263.896 310.999 263.907L382.519 263.904C398.079 263.89 418.748 260.326 425.226 279.023C427.53 285.671 426.518 298.961 426.521 306.05L426.521 360.607C426.514 376.23 427.163 388.571 409.68 394.563C409.589 403.961 413.455 424.156 403.799 428.108C397.12 429.24 392.513 421.669 388.387 417.492C381.454 410.474 374.626 403.352 367.606 396.422L317.692 396.418C310.416 396.418 298.175 397.093 291.471 395.862C269.901 391.903 272.628 368.448 272.625 352.386L272.613 295.493C272.567 279.576 275.45 265.166 295.637 263.91ZM294.052 277.304C283.221 278.549 285.825 293.423 285.836 300.909L285.841 358.25C285.84 374.977 282.87 383.287 301.802 383.256L355.96 383.235C360.312 383.229 369.786 382.34 373.455 384.101C379.339 386.926 390.068 400.932 396.522 406.448C396.526 404.005 396.55 401.56 396.522 399.117C396.488 394.899 395.791 389.101 398.966 385.795C405.498 378.994 412.993 383.011 413.051 369.988L413.053 295.593C413.04 277.445 412.683 277.263 393.18 277.281L294.052 277.304Z"/>
	<path fill="#439CFE" transform="matrix(0.292969 0 0 -0.292969 0 150)" d="M340.884 291.019C345.923 291.037 350.968 291.105 356.007 291.019C356.213 293.807 356.286 296.488 356.007 299.274C358.773 300.3 361.4 301.569 364.055 302.848C366.24 301.043 367.913 298.717 370.187 296.977C373.589 300.704 377.733 304.002 380.825 307.964C379.032 310.101 376.705 312.015 374.719 314.004C376.385 316.553 377.475 319.198 378.532 322.046L387.756 322.046L387.756 336.903C384.658 336.727 381.628 336.721 378.532 336.903C377.437 339.664 376.136 342.495 374.719 345.106C376.842 347.17 378.813 349.423 380.825 351.597C376.465 354.715 373.219 359.112 369.298 362.728C367.284 360.497 364.935 358.56 362.689 356.568C360.546 357.712 358.318 358.527 356.007 359.258C355.88 362.212 356.107 365.181 356.007 368.142L340.884 368.142L340.884 359.258C338.346 358.747 336.257 358.042 334.104 356.568C331.412 358.229 329.153 360.565 326.866 362.728C323.504 358.84 319.651 355.302 316.079 351.597L322.389 345.106C320.858 342.409 319.853 339.897 319.048 336.903C316.029 336.937 313.011 336.923 309.992 336.903C310.026 331.956 309.722 326.987 309.992 322.046C313.025 322.059 316.012 322.207 319.048 322.046C319.773 319.191 321.084 316.624 322.389 314.004C320.231 312.038 318.132 310.039 316.079 307.964C319.717 304.339 322.931 300.302 326.866 296.977C328.692 299.074 330.73 300.945 332.751 302.848C335.375 301.517 338.146 300.349 340.884 299.274C341 296.596 340.539 293.631 340.884 291.019ZM346.207 312.309C322.174 316.465 329.776 349.923 350.563 346.935C373.395 343.219 369.126 309.88 346.207 312.309Z"/>
	<path fill="#439CFE" transform="matrix(0.292969 0 0 -0.292969 0 150)" d="M413.054 72.5453C419.998 72.172 426.178 72.8461 432.016 76.9206C445.081 86.0396 443.071 98.3213 443.066 112.251L443.068 166.787C443.104 182.345 441.333 196.702 422.83 201.606C417.637 202.982 410.983 202.284 405.594 202.268L364.429 202.27C359.198 202.275 353.598 201.491 348.457 202.27C342.202 206.103 327.752 221.915 322.12 227.517C318.585 231.034 316.307 234.713 310.977 234.844C303.177 232.762 304.732 224.749 304.732 218.409L304.747 202.27C285.176 200.265 281.031 185.91 281.02 169.737L280.883 99.0651C280.806 87.3663 288.706 75.8468 300.497 73.375C306.065 72.2076 312.12 72.5319 317.79 72.5331L413.054 72.5453ZM355.061 85.6699L321.641 85.6609C299.084 85.6637 294.031 84.0598 294.037 107.19L294.05 123.047C294.069 139.939 293.842 156.851 294.039 173.74C294.323 198.137 317.337 180.742 317.936 198.575C318.097 203.386 317.543 208.325 317.939 213.109C324.715 207.389 338.671 189.461 346.207 189.192L408.949 189.2C426.453 189.192 429.94 186.19 429.978 168.582L429.974 101.615C429.801 81.4019 412.496 85.6628 398.297 85.6751L355.061 85.6699Z"/>
	<path fill="#439CFE" transform="matrix(0.292969 0 0 -0.292969 0 150)" d="M322.389 104.389L332.751 104.389L332.751 117.756C331.089 117.847 329.475 117.84 327.812 117.756C313.251 118.516 315.48 106.457 322.389 104.389Z"/>
	<path fill="#439CFE" transform="matrix(0.292969 0 0 -0.292969 0 150)" d="M393.89 152.315C397.553 152.281 405.096 151.288 407.962 154.02C411.522 157.413 410.26 164.402 405.28 165.552C401.555 166.413 392.213 165.816 387.756 165.809L371.851 165.809C371.776 161.316 371.849 156.809 371.851 152.315L393.89 152.315Z"/>
	<path fill="#439CFE" transform="matrix(0.292969 0 0 -0.292969 0 150)" d="M323.494 152.315C327.546 152.076 331.736 152.296 335.8 152.299L360.86 152.315L360.86 165.809C359.245 165.843 357.623 165.811 356.007 165.809L327.151 165.824C319.945 165.768 316.884 163.442 317.282 156.098C318.717 153.679 320.794 152.805 323.494 152.315Z"/>
	<path fill="#439CFE" transform="matrix(0.292969 0 0 -0.292969 0 150)" d="M343.383 104.389C361.684 104.689 385.721 102.765 403.248 104.399C409.639 104.995 411.813 111.09 407.915 115.844C405.035 118.46 401.187 117.779 397.583 117.774L343.383 117.756C343.216 113.317 343.366 108.832 343.383 104.389Z"/>
	<path fill="#439CFE" transform="matrix(0.292969 0 0 -0.292969 0 150)" d="M323.494 128.282L393.961 128.263C397.143 128.257 400.428 128.083 403.595 128.351C412.283 129.087 411.91 141.017 403.799 141.941L333.952 141.937C329.859 141.944 323.679 142.887 319.998 140.661C314.636 137.419 316.302 129.452 323.494 128.282Z"/>
</svg>
